<?xml version="1.0" encoding="utf-8"?>
<!-- Generator: Adobe Illustrator 25.4.1, SVG Export Plug-In . SVG Version: 6.00 Build 0)  -->
<svg version="1.1" id="Layer_1" xmlns="http://www.w3.org/2000/svg" xmlns:xlink="http://www.w3.org/1999/xlink" x="0px" y="0px"
	 viewBox="0 0 291.7 221" style="enable-background:new 0 0 291.7 221;" xml:space="preserve">
<style type="text/css">
	.st0{fill:#225C2E;stroke:#231F20;stroke-width:25;stroke-miterlimit:10;}
	.st1{fill:#0AFF01;stroke:#231F20;stroke-width:6;stroke-miterlimit:10;}
	.st2{fill:#F4FF00;stroke:#231F20;stroke-width:6;stroke-miterlimit:10;}
	.st3{fill:#231F20;stroke:#231F20;stroke-width:6;stroke-miterlimit:10;}
	.st4{fill:none;stroke:#231F20;stroke-width:6;stroke-miterlimit:10;}
	.st5{fill:none;stroke:#231F20;stroke-width:4;stroke-miterlimit:10;}
	.st6{fill:none;stroke:#FFFFFF;stroke-width:5;stroke-miterlimit:10;}
	.st7{fill:#231F20;}
	.st8{fill:#FFFFFF;}
	.st9{fill:none;}
</style>
<circle class="st0" cx="199.1" cy="128.4" r="80.1"/>
<path class="st1" d="M254.9,99.5c-4.5-17.3-9-34.5-13.6-51.8c-1.1-5-2.8-9.9-4.9-14.5c-3.1-6.3-7.8-11.7-12.5-17
	c-1.6-1.9-3.4-3.6-5.4-5c-2.4-1.4-5.1-2.3-7.9-2.9l-17.8-4.4c-2.4-0.6-5-1.2-7.5-0.8S181,5,178.9,6.3c-9.3,6.1-19.1,11.3-29.3,15.6
	c-6.9,2.9-14.1,5.5-19.9,10.2s-10,12.3-8.4,19.6h-0.1c1.7,6.8,3.1,14.5-1,20.2c-0.7,0.8-1.3,1.7-1.8,2.7c-0.2,0.7-0.3,1.5-0.4,2.2
	c-0.3,1.7-1.3,3.2-1.7,4.9c-0.1,0.4-0.2,0.8-0.2,1.2c-0.3,4.9,3.7,9.6,3.8,14.5c0.6,0.2,1.2,0.4,1.8,0.6c12.1,4.2,21.4,14.5,27,26.1
	s7.7,24.5,9.1,37.2c0.9,7.8-0.6,19.1,2,26.4c2.7,7.4,11.6,5.9,18.6,6.4c19.8,1.3,39.7,0.6,59.4-1.9c2.3-0.3,4.8-0.7,6.3-2.4
	c1.1-1.5,1.8-3.2,2-5.1c2.2-12.4,3.1-24.9,2.7-37.4c-0.2-8.9-1-18.4,3.2-26.3c1.3-2.3,2.9-4.4,3.8-6.9
	C257.4,109.5,256.2,104.3,254.9,99.5z M181.6,43.8c-0.6,1.7-2.7,2.2-4.5,2.4l-8.4,0.9c-1.1,0.2-2.2,0.1-3.2-0.4
	c-1.2-0.8-1.4-2.5-1.5-4c-0.2-1.1,0-2.3,0.5-3.3s1.8-1.4,2.8-0.9c3.4-0.4,6.8-0.2,10.1,0.6C179.7,39.7,182.4,41.5,181.6,43.8z"/>
<path class="st2" d="M115,82.4c-0.3,4.9,3.7,9.5,3.8,14.5c-19.5-5.7-40.2,4.3-60.6,6.4c-15.2,1.6-30.5-1.3-45.5-4.2
	c-3.2-0.6-6.8-1.5-8.7-4.2c24.7-23.1,58.8-32.3,91.6-40.7c8-2.1,16.3-4.2,24.5-3.1c1.7,6.8,3.1,14.5-1,20.1
	c-0.7,0.8-1.3,1.7-1.8,2.7c-0.2,0.7-0.3,1.5-0.4,2.3c-0.3,1.7-1.3,3.2-1.7,4.9C115,81.6,115,82,115,82.4z"/>
<path class="st3" d="M180.5,43.2c-0.6,1.7-2.7,2.2-4.5,2.4c-2.8,0.3-5.6,0.6-8.4,0.9c-1.1,0.2-2.2,0.1-3.2-0.4
	c-1.2-0.8-1.4-2.5-1.5-4c-0.2-1.1,0-2.3,0.5-3.3s1.7-1.4,2.8-0.9c3.4-0.4,6.8-0.2,10.1,0.6C178.6,39.1,181.3,40.9,180.5,43.2z"/>
<path class="st4" d="M8.4,96.6c16.8-3.4,33.9-5.8,51-7.2c14.5-1.1,34.2,2.7,47.4-3.6c2.9-1.4,5.6-3.2,8.8-3.4"/>
<path class="st4" d="M118.7,96.9c0,0.3,0,0.5,0,0.8"/>
<path class="st4" d="M120,51.2c0-0.1,0-0.1,0-0.2"/>
<path class="st4" d="M91.1,69.2l6,0.2c-1.8,1-3.9,1.6-6,1.7"/>
<path class="st5" d="M166.4,37.9l-0.1-0.1h-0.4"/>
<circle class="st6" cx="167.2" cy="41.5" r="1.6"/>
<path class="st7" d="M152.1,189.5c19.9,27.9,58.6,34.5,86.6,14.6c5.5-3.9,10.3-8.7,14.2-14.1C219.3,191.5,185.7,189.7,152.1,189.5z"
	/>
<ellipse class="st8" cx="167.2" cy="41.4" rx="2.2" ry="2"/>
<rect x="91.1" y="68.2" class="st9" width="5.8" height="3.9"/>
<rect x="95.6" y="67.5" class="st9" width="0.7" height="1"/>
<rect x="91.6" y="71.1" class="st9" width="0.7" height="1"/>
<rect x="91.3" y="67.1" class="st7" width="6" height="5.5"/>
</svg>
